<?xml version="1.0" encoding="UTF-8"?>
<!DOCTYPE svg PUBLIC "-//W3C//DTD SVG 1.1//EN" "http://www.w3.org/Graphics/SVG/1.1/DTD/svg11.dtd">
<svg xmlns="http://www.w3.org/2000/svg" version="1.1" width="3000px" height="2382px" style="shape-rendering:geometricPrecision; text-rendering:geometricPrecision; image-rendering:optimizeQuality; fill-rule:evenodd; clip-rule:evenodd" xmlns:xlink="http://www.w3.org/1999/xlink">
<g><path style="opacity:0.975" fill="#4dc862" d="M 2978.5,-0.5 C 2978.83,-0.5 2979.17,-0.5 2979.5,-0.5C 2917.92,101.676 2855.58,203.342 2792.5,304.5C 2814.96,231.773 2837.63,159.106 2860.5,86.5C 2899.83,57.5 2939.17,28.5 2978.5,-0.5 Z"/></g>
<g><path style="opacity:0.995" fill="#4bc45f" d="M 2860.5,86.5 C 2837.63,159.106 2814.96,231.773 2792.5,304.5C 2683.27,483.944 2573.77,663.278 2464,842.5C 2425.37,871.219 2386.54,899.552 2347.5,927.5C 2410.82,726.236 2473.82,525.236 2536.5,324.5C 2644.2,244.812 2752.2,165.479 2860.5,86.5 Z"/></g>
<g><path style="opacity:0.997" fill="#4bc15d" d="M 2536.5,324.5 C 2473.82,525.236 2410.82,726.236 2347.5,927.5C 2337.86,935.319 2327.86,942.653 2317.5,949.5C 2381.14,748.276 2444.47,546.943 2507.5,345.5C 2516.99,338.255 2526.66,331.255 2536.5,324.5 Z"/></g>
<g><path style="opacity:0.997" fill="#4abf5e" d="M 2507.5,345.5 C 2444.47,546.943 2381.14,748.276 2317.5,949.5C 2288.56,971.643 2259.23,993.309 2229.5,1014.5C 2293.04,813.227 2356.37,611.894 2419.5,410.5C 2448.8,388.845 2478.13,367.178 2507.5,345.5 Z"/></g>
<g><path style="opacity:0.997" fill="#49bd5c" d="M 2419.5,410.5 C 2356.37,611.894 2293.04,813.227 2229.5,1014.5C 2161.71,1065.23 2093.37,1115.23 2024.5,1164.5C 2087.7,963.555 2150.7,762.555 2213.5,561.5C 2282.17,511.167 2350.83,460.833 2419.5,410.5 Z"/></g>
<g><path style="opacity:0.979" fill="#4fcc64" d="M 2999.5,533.5 C 2999.5,534.167 2999.5,534.833 2999.5,535.5C 2924.08,658.667 2848.42,781.667 2772.5,904.5C 2799.96,816.106 2827.63,727.773 2855.5,639.5C 2903.14,603.681 2951.14,568.348 2999.5,533.5 Z"/></g>
<g><path style="opacity:0.997" fill="#47b85a" d="M 2213.5,561.5 C 2150.7,762.555 2087.7,963.555 2024.5,1164.5C 1916.86,1244.32 1808.86,1323.65 1700.5,1402.5C 1764.23,1201.64 1827.56,1000.64 1890.5,799.5C 1997.95,719.934 2105.62,640.601 2213.5,561.5 Z"/></g>
<g><path style="opacity:0.994" fill="#4dc962" d="M 2855.5,639.5 C 2827.63,727.773 2799.96,816.106 2772.5,904.5C 2677.19,1061.78 2581.36,1218.78 2485,1375.5C 2471.96,1385.38 2458.79,1395.05 2445.5,1404.5C 2508.82,1203.24 2571.82,1002.24 2634.5,801.5C 2707.63,746.77 2781.29,692.77 2855.5,639.5 Z"/></g>
<g><path style="opacity:0.997" fill="#45b458" d="M 1890.5,799.5 C 1827.56,1000.64 1764.23,1201.64 1700.5,1402.5C 1657.07,1435.6 1613.07,1467.93 1568.5,1499.5C 1632.04,1298.23 1695.37,1096.89 1758.5,895.5C 1802.24,863.088 1846.24,831.088 1890.5,799.5 Z"/></g>
<g><path style="opacity:0.997" fill="#4bc45f" d="M 2634.5,801.5 C 2571.82,1002.24 2508.82,1203.24 2445.5,1404.5C 2338.14,1483.85 2230.47,1562.85 2122.5,1641.5C 2185.7,1440.55 2248.7,1239.55 2311.5,1038.5C 2418.86,959.146 2526.53,880.146 2634.5,801.5 Z"/></g>
<g><path style="opacity:0.997" fill="#45b257" d="M 1758.5,895.5 C 1695.37,1096.89 1632.04,1298.23 1568.5,1499.5C 1544.38,1517.73 1520.05,1535.73 1495.5,1553.5C 1558.7,1352.55 1621.7,1151.55 1684.5,950.5C 1709.13,932.178 1733.8,913.845 1758.5,895.5 Z"/></g>
<g><path style="opacity:0.997" fill="#43af56" d="M 1684.5,950.5 C 1621.7,1151.55 1558.7,1352.55 1495.5,1553.5C 1441.54,1593.15 1387.54,1632.82 1333.5,1672.5C 1397.04,1471.23 1460.37,1269.89 1523.5,1068.5C 1576.95,1028.93 1630.62,989.601 1684.5,950.5 Z"/></g>
<g><path style="opacity:0.997" fill="#4bc15d" d="M 2311.5,1038.5 C 2248.7,1239.55 2185.7,1440.55 2122.5,1641.5C 2113.12,1648.88 2103.45,1655.88 2093.5,1662.5C 2156.3,1461.45 2219.3,1260.45 2282.5,1059.5C 2291.99,1052.26 2301.66,1045.26 2311.5,1038.5 Z"/></g>
<g><path style="opacity:0.997" fill="#4abf5e" d="M 2282.5,1059.5 C 2219.3,1260.45 2156.3,1461.45 2093.5,1662.5C 2064.05,1684.73 2034.38,1706.73 2004.5,1728.5C 2067.83,1527.17 2131.17,1325.83 2194.5,1124.5C 2223.8,1102.85 2253.13,1081.18 2282.5,1059.5 Z"/></g>
<g><path style="opacity:0.997" fill="#42ab53" d="M 1523.5,1068.5 C 1460.37,1269.89 1397.04,1471.23 1333.5,1672.5C 1226.14,1751.85 1118.47,1830.85 1010.5,1909.5C 1073.83,1708.17 1137.17,1506.83 1200.5,1305.5C 1307.99,1226.26 1415.66,1147.26 1523.5,1068.5 Z"/></g>
<g><path style="opacity:0.997" fill="#49bd5c" d="M 2194.5,1124.5 C 2131.17,1325.83 2067.83,1527.17 2004.5,1728.5C 1936.31,1778.75 1867.98,1828.75 1799.5,1878.5C 1862.65,1677.55 1925.65,1476.55 1988.5,1275.5C 2057.13,1225.18 2125.8,1174.85 2194.5,1124.5 Z"/></g>
<g><path style="opacity:0.998" fill="#47b85a" d="M 1988.5,1275.5 C 1925.65,1476.55 1862.65,1677.55 1799.5,1878.5C 1792.86,1883.82 1786.2,1889.16 1779.5,1894.5C 1783.57,1897.19 1787.57,1899.86 1791.5,1902.5C 1758.88,2006.7 1725.88,2110.7 1692.5,2214.5C 1614.15,2201.27 1535.82,2187.94 1457.5,2174.5C 1527.04,1953.89 1596.37,1733.23 1665.5,1512.5C 1772.99,1433.26 1880.66,1354.26 1988.5,1275.5 Z"/></g>
<g><path style="opacity:0.997" fill="#40a752" d="M 1200.5,1305.5 C 1137.17,1506.83 1073.83,1708.17 1010.5,1909.5C 976.383,1935.07 942.049,1960.4 907.5,1985.5C 970.833,1784.17 1034.17,1582.83 1097.5,1381.5C 1131.62,1355.93 1165.95,1330.6 1200.5,1305.5 Z"/></g>
<g><path style="opacity:0.997" fill="#3fa450" d="M 1097.5,1381.5 C 1034.17,1582.83 970.833,1784.17 907.5,1985.5C 873.711,2010.12 840.044,2034.95 806.5,2060C 803.833,2060.67 801.167,2060.67 798.5,2060C 771.839,2055.39 745.172,2050.89 718.5,2046.5C 771.655,1878.88 824.655,1711.21 877.5,1543.5C 950.44,1489.02 1023.77,1435.02 1097.5,1381.5 Z"/></g>
<g><path style="opacity:0.921" fill="#3fa350" d="M 912.5,1432.5 C 915.703,1422.22 918.703,1411.89 921.5,1401.5C 939.355,1395.93 957.355,1391.1 975.5,1387C 954.795,1402.68 933.795,1417.84 912.5,1432.5 Z"/></g>
<g><path style="opacity:0.966" fill="#3fa24e" d="M 921.5,1401.5 C 918.703,1411.89 915.703,1422.22 912.5,1432.5C 903.051,1440.06 893.385,1447.4 883.5,1454.5C 887.833,1439.17 892.167,1423.83 896.5,1408.5C 904.789,1406.01 913.122,1403.68 921.5,1401.5 Z"/></g>
<g><path style="opacity:0.988" fill="#3d9e4d" d="M 896.5,1408.5 C 892.167,1423.83 887.833,1439.17 883.5,1454.5C 785.5,1526.5 687.5,1598.5 589.5,1670.5C 609.323,1606.87 628.99,1543.21 648.5,1479.5C 731.167,1455.83 813.833,1432.17 896.5,1408.5 Z"/></g>
<g><path style="opacity:0.994" fill="#3b9a4b" d="M 648.5,1479.5 C 628.99,1543.21 609.323,1606.87 589.5,1670.5C 515.833,1724.5 442.167,1778.5 368.5,1832.5C 399.988,1732.88 431.322,1633.21 462.5,1533.5C 524.327,1515.21 586.327,1497.21 648.5,1479.5 Z"/></g>
<g><path style="opacity:0.998" fill="#45b458" d="M 1665.5,1512.5 C 1596.37,1733.23 1527.04,1953.89 1457.5,2174.5C 1425.52,2168.84 1393.52,2163.17 1361.5,2157.5C 1418.63,1974.77 1475.96,1792.11 1533.5,1609.5C 1577.5,1577.17 1621.5,1544.83 1665.5,1512.5 Z"/></g>
<g><path style="opacity:0.996" fill="#3a9649" d="M 462.5,1533.5 C 431.322,1633.21 399.988,1732.88 368.5,1832.5C 320.226,1868.64 271.56,1904.31 222.5,1939.5C 261.011,1815.79 299.677,1692.13 338.5,1568.5C 379.724,1556.43 421.057,1544.76 462.5,1533.5 Z"/></g>
<g><path style="opacity:0.997" fill="#3fa24e" d="M 877.5,1543.5 C 824.655,1711.21 771.655,1878.88 718.5,2046.5C 711.551,2045.06 704.551,2043.73 697.5,2042.5C 747.5,1883.5 797.5,1724.5 847.5,1565.5C 857.136,1557.68 867.136,1550.35 877.5,1543.5 Z"/></g>
<g><path style="opacity:0.996" fill="#3d9f4e" d="M 847.5,1565.5 C 797.5,1724.5 747.5,1883.5 697.5,2042.5C 626.167,2030.17 554.833,2017.83 483.5,2005.5C 507.24,1930.61 530.573,1855.61 553.5,1780.5C 651.518,1708.81 749.518,1637.14 847.5,1565.5 Z"/></g>
<g><path style="opacity:0.998" fill="#399348" d="M 338.5,1568.5 C 299.677,1692.13 261.011,1815.79 222.5,1939.5C 216.595,1944.8 210.262,1949.63 203.5,1954C 207.043,1957.05 210.709,1959.88 214.5,1962.5C 204.322,1995.55 193.988,2028.55 183.5,2061.5C 141.193,2052.37 98.8598,2043.37 56.5,2034.5C 101.035,1893.56 145.369,1752.56 189.5,1611.5C 239.092,1596.97 288.759,1582.64 338.5,1568.5 Z"/></g>
<g><path style="opacity:0.998" fill="#45b257" d="M 1533.5,1609.5 C 1475.96,1792.11 1418.63,1974.77 1361.5,2157.5C 1343.5,2154.5 1325.5,2151.5 1307.5,2148.5C 1358.37,1987.23 1409.04,1825.89 1459.5,1664.5C 1484.13,1646.18 1508.8,1627.85 1533.5,1609.5 Z"/></g>
<g><path style="opacity:0.994" fill="#389147" d="M 189.5,1611.5 C 145.369,1752.56 101.035,1893.56 56.5,2034.5C 37.6313,2029.99 18.6313,2025.99 -0.5,2022.5C -0.5,2019.17 -0.5,2015.83 -0.5,2012.5C 14.8114,1892.68 29.8114,1772.68 44.5,1652.5C 92.7887,1638.68 141.122,1625.01 189.5,1611.5 Z"/></g>
<g><path style="opacity:0.997" fill="#43b056" d="M 1459.5,1664.5 C 1409.04,1825.89 1358.37,1987.23 1307.5,2148.5C 1268.36,2141.6 1229.36,2134.6 1190.5,2127.5C 1226.1,2012.38 1262.1,1897.38 1298.5,1782.5C 1351.63,1742.44 1405.29,1703.1 1459.5,1664.5 Z"/></g>
<g><path style="opacity:0.99" fill="#3b9a4b" d="M 553.5,1780.5 C 530.573,1855.61 507.24,1930.61 483.5,2005.5C 429.807,1996.27 376.141,1986.94 322.5,1977.5C 326.363,1965.91 330.03,1954.24 333.5,1942.5C 406.795,1888.51 480.129,1834.51 553.5,1780.5 Z"/></g>
<g><path style="opacity:0.994" fill="#42ac54" d="M 1298.5,1782.5 C 1262.1,1897.38 1226.1,2012.38 1190.5,2127.5C 1111.81,2114.3 1033.15,2100.96 954.5,2087.5C 961.5,2064.83 968.5,2042.17 975.5,2019.5C 1082.86,1940.15 1190.53,1861.15 1298.5,1782.5 Z"/></g>
<g><path style="opacity:0.997" fill="#49bd5c" d="M 1791.5,1902.5 C 1836.99,1926.41 1881.99,1951.08 1926.5,1976.5C 1898.5,2064.5 1870.5,2152.5 1842.5,2240.5C 1792.27,2232.45 1742.27,2223.78 1692.5,2214.5C 1725.88,2110.7 1758.88,2006.7 1791.5,1902.5 Z"/></g>
<g><path style="opacity:0.933" fill="#3b9849" d="M 333.5,1942.5 C 330.03,1954.24 326.363,1965.91 322.5,1977.5C 312.736,1976.1 303.069,1974.26 293.5,1972C 306.685,1961.91 320.018,1952.08 333.5,1942.5 Z"/></g>
<g><path style="opacity:0.987" fill="#3a9649" d="M 214.5,1962.5 C 245.563,1985.03 276.229,2008.03 306.5,2031.5C 300.265,2048.88 294.598,2066.54 289.5,2084.5C 254.167,2076.83 218.833,2069.17 183.5,2061.5C 193.988,2028.55 204.322,1995.55 214.5,1962.5 Z"/></g>
<g><path style="opacity:0.996" fill="#4abf5e" d="M 1926.5,1976.5 C 1945.63,1986.57 1964.63,1996.9 1983.5,2007.5C 1958.16,2089.17 1932.83,2170.84 1907.5,2252.5C 1885.72,2248.59 1864.06,2244.59 1842.5,2240.5C 1870.5,2152.5 1898.5,2064.5 1926.5,1976.5 Z"/></g>
<g><path style="opacity:0.996" fill="#4bc15d" d="M 1983.5,2007.5 C 1990.17,2011.17 1996.83,2014.83 2003.5,2018.5C 1978.3,2097.42 1953.3,2176.42 1928.5,2255.5C 1921.48,2254.61 1914.48,2253.61 1907.5,2252.5C 1932.83,2170.84 1958.16,2089.17 1983.5,2007.5 Z"/></g>
<g><path style="opacity:0.995" fill="#4bc45f" d="M 2003.5,2018.5 C 2074.2,2057.52 2144.87,2096.52 2215.5,2135.5C 2197.53,2188.75 2180.53,2242.42 2164.5,2296.5C 2085.72,2283.26 2007.06,2269.59 1928.5,2255.5C 1953.3,2176.42 1978.3,2097.42 2003.5,2018.5 Z"/></g>
<g><path style="opacity:0.963" fill="#40a752" d="M 975.5,2019.5 C 968.5,2042.17 961.5,2064.83 954.5,2087.5C 935.541,2084.01 916.541,2080.51 897.5,2077C 923.378,2057.62 949.378,2038.45 975.5,2019.5 Z"/></g>
<g><path style="opacity:0.965" fill="#3b994b" d="M 306.5,2031.5 C 342.435,2057.43 378.102,2083.76 413.5,2110.5C 372.379,2102.27 331.046,2093.61 289.5,2084.5C 294.598,2066.54 300.265,2048.88 306.5,2031.5 Z"/></g>
<g><path style="opacity:0.993" fill="#4dc962" d="M 2215.5,2135.5 C 2263.43,2161.44 2311.09,2187.77 2358.5,2214.5C 2347.37,2251.23 2336.04,2287.89 2324.5,2324.5C 2271.17,2315.17 2217.83,2305.83 2164.5,2296.5C 2180.53,2242.42 2197.53,2188.75 2215.5,2135.5 Z"/></g>
<g><path style="opacity:0.99" fill="#4fcd64" d="M 2358.5,2214.5 C 2394.16,2233.33 2429.49,2252.66 2464.5,2272.5C 2457.37,2296.56 2450.04,2320.56 2442.5,2344.5C 2403.13,2338.05 2363.8,2331.38 2324.5,2324.5C 2336.04,2287.89 2347.37,2251.23 2358.5,2214.5 Z"/></g>
<g><path style="opacity:0.98" fill="#50d065" d="M 2464.5,2272.5 C 2516.19,2300.34 2567.52,2328.67 2618.5,2357.5C 2617.04,2363.23 2615.37,2368.89 2613.5,2374.5C 2556.42,2364.75 2499.42,2354.75 2442.5,2344.5C 2450.04,2320.56 2457.37,2296.56 2464.5,2272.5 Z"/></g>
<g><path style="opacity:0.908" fill="#52d367" d="M 2618.5,2357.5 C 2633.49,2365 2648.16,2373 2662.5,2381.5C 2658.83,2381.5 2655.17,2381.5 2651.5,2381.5C 2639,2378.94 2626.33,2376.6 2613.5,2374.5C 2615.37,2368.89 2617.04,2363.23 2618.5,2357.5 Z"/></g>
</svg>
